<svg width="16" height="16" viewBox="0 0 16 16" fill="none" xmlns="http://www.w3.org/2000/svg">
<g clip-path="url(#clip0_39_416)">
<path d="M8 16C5.87827 16 3.84344 15.1571 2.34315 13.6569C0.842855 12.1566 0 10.1217 0 8C0 5.87827 0.842855 3.84344 2.34315 2.34315C3.84344 0.842855 5.87827 0 8 0C10.1217 0 12.1566 0.758569 13.6569 2.10883C15.1571 3.45909 16 5.29044 16 7.2C16 8.26087 15.5786 9.27828 14.8284 10.0284C14.0783 10.7786 13.0609 11.2 12 11.2H10.2C9.94 11.2 9.68514 11.2724 9.46398 11.4091C9.24281 11.5458 9.06408 11.7414 8.9478 11.9739C8.83153 12.2064 8.78231 12.4668 8.80566 12.7257C8.82901 12.9847 8.924 13.232 9.08 13.44L9.32 13.76C9.476 13.968 9.57099 14.2153 9.59434 14.4743C9.61769 14.7332 9.56847 14.9936 9.4522 15.2261C9.33592 15.4586 9.15719 15.6542 8.93602 15.7909C8.71486 15.9276 8.46 16 8.2 16H8Z" fill="#D9D9D9"/>
<circle cx="3" cy="6" r="1" fill="#6C6C6C"/>
<circle cx="6" cy="3" r="1" fill="#6C6C6C"/>
<circle cx="10" cy="3" r="1" fill="#6C6C6C"/>
<circle cx="13" cy="6" r="1" fill="#6C6C6C"/>
</g>
<defs>
<clipPath id="clip0_39_416">
<rect width="16" height="16" fill="white"/>
</clipPath>
</defs>
</svg>
