<svg width="16" height="16" viewBox="0 0 16 16" fill="none" xmlns="http://www.w3.org/2000/svg">
<path d="M2.5 13L1 9L2.5 8L4 8.5V5.5L5 4.5L6.5 5L7 4.5L8 4L9.5 5H11L12 6L14.5 6.5V9L14 12.5L10.5 14.5H6L2.5 13Z" fill="#6C6C6C"/>
<path d="M12 7.66667V6.00001C12 5.64638 11.8595 5.30724 11.6095 5.0572C11.3594 4.80715 11.0203 4.66667 10.6667 4.66667C10.313 4.66667 9.97391 4.80715 9.72386 5.0572C9.47381 5.30724 9.33333 5.64638 9.33333 6.00001V6.93334" stroke="#D9D9D9" stroke-linecap="round" stroke-linejoin="round"/>
<path d="M9.33333 6.66667V5.33333C9.33333 4.97971 9.19286 4.64057 8.94281 4.39052C8.69276 4.14048 8.35362 4 8 4C7.64638 4 7.30724 4.14048 7.05719 4.39052C6.80714 4.64057 6.66667 4.97971 6.66667 5.33333V6.66667" stroke="#D9D9D9" stroke-linecap="round" stroke-linejoin="round"/>
<path d="M6.66667 6.6V6.00001C6.66667 5.64638 6.52619 5.30724 6.27614 5.0572C6.02609 4.80715 5.68696 4.66667 5.33333 4.66667C4.97971 4.66667 4.64057 4.80715 4.39052 5.0572C4.14048 5.30724 4 5.64638 4 6.00001V9.33334" stroke="#D9D9D9" stroke-linecap="round" stroke-linejoin="round"/>
<path d="M4 9.33333C4 8.97971 3.85952 8.64057 3.60947 8.39052C3.35943 8.14048 3.02029 8 2.66667 8C2.31304 8 1.9739 8.14048 1.72386 8.39052C1.47381 8.64057 1.33333 8.97971 1.33333 9.33333" stroke="#D9D9D9" stroke-linecap="round" stroke-linejoin="round"/>
<path d="M12 7.33333C12 6.97971 12.1405 6.64057 12.3905 6.39052C12.6406 6.14048 12.9797 6 13.3333 6C13.687 6 14.0261 6.14048 14.2761 6.39052C14.5262 6.64057 14.6667 6.97971 14.6667 7.33333V9.33333C14.6667 10.7478 14.1048 12.1044 13.1046 13.1046C12.1044 14.1048 10.7478 14.6667 9.33333 14.6667H6.66667C5.25218 14.6667 3.89562 14.1048 2.89543 13.1046C1.89524 12.1044 1.33333 10.7478 1.33333 9.33333C1.33333 8.97971 1.47381 8.64057 1.72386 8.39052C1.9739 8.14048 2.31304 8 2.66667 8C3.02029 8 3.35943 8.14048 3.60947 8.39052C3.85952 8.64057 4 8.97971 4 9.33333" stroke="#D9D9D9" stroke-linecap="round" stroke-linejoin="round"/>
</svg>
