<svg width="16" height="16" viewBox="0 0 16 16" fill="none" xmlns="http://www.w3.org/2000/svg">
<g clip-path="url(#clip0_152_81)">
<path d="M4.5 13.5L1 10L2.5 8.5L4 9V4L4.5 3H6.5L7 2L7.5 1.5H9L9.5 3H11.5L12 4H13.5L14.5 5L15 9L14 12L10.5 14.5H6.5L4.5 13.5Z" fill="#6C6C6C"/>
<path d="M12 7.33334V4.00001C12 3.64638 11.8595 3.30724 11.6095 3.0572C11.3594 2.80715 11.0203 2.66667 10.6667 2.66667C10.313 2.66667 9.97391 2.80715 9.72386 3.0572C9.47381 3.30724 9.33333 3.64638 9.33333 4.00001" stroke="#D9D9D9" stroke-linecap="round" stroke-linejoin="round"/>
<path d="M9.33333 6.66666V2.66666C9.33333 2.31304 9.19286 1.9739 8.94281 1.72385C8.69276 1.4738 8.35362 1.33333 8 1.33333C7.64638 1.33333 7.30724 1.4738 7.05719 1.72385C6.80714 1.9739 6.66667 2.31304 6.66667 2.66666V3.99999" stroke="#D9D9D9" stroke-linecap="round" stroke-linejoin="round"/>
<path d="M6.66667 7V4.00001C6.66667 3.64638 6.52619 3.30724 6.27614 3.0572C6.02609 2.80715 5.68696 2.66667 5.33333 2.66667C4.97971 2.66667 4.64057 2.80715 4.39052 3.0572C4.14048 3.30724 4 3.64638 4 4.00001V9.33334" stroke="#D9D9D9" stroke-linecap="round" stroke-linejoin="round"/>
<path d="M12 5.33333C12 4.97971 12.1405 4.64057 12.3905 4.39052C12.6406 4.14048 12.9797 4 13.3333 4C13.687 4 14.0261 4.14048 14.2761 4.39052C14.5262 4.64057 14.6667 4.97971 14.6667 5.33333V9.33333C14.6667 10.7478 14.1048 12.1044 13.1046 13.1046C12.1044 14.1048 10.7478 14.6667 9.33333 14.6667H8C6.13333 14.6667 5 14.0933 4.00667 13.1067L1.60667 10.7067C1.37729 10.4526 1.25439 10.1201 1.26342 9.77796C1.27244 9.43581 1.4127 9.11023 1.65515 8.86864C1.8976 8.62705 2.22367 8.48794 2.56585 8.48013C2.90803 8.47232 3.24011 8.59639 3.49333 8.82667L4.66667 10" stroke="#D9D9D9" stroke-linecap="round" stroke-linejoin="round"/>
</g>
<defs>
<clipPath id="clip0_152_81">
<rect width="16" height="16" fill="white"/>
</clipPath>
</defs>
</svg>
