<svg width="16" height="16" viewBox="0 0 16 16" fill="none" xmlns="http://www.w3.org/2000/svg">
<g clip-path="url(#clip0_39_427)">
<path d="M4.72566 8.85105C4.1211 9.42913 1.56805 5.97872 0.5 7C-0.568048 8.02128 1.83613 9.70713 4 12C5.63974 13.7375 6.8001 16 8.64184 16C12.914 16 13.1444 11.3617 13.5004 10C13.8565 8.6383 16.8302 5.78723 15.7622 4.42553C14.6941 3.06383 12.914 7.48936 12.202 7.14892C11.49 6.80848 13.9821 1.70213 12.202 1.36169C10.4219 1.02126 10.4219 6.46808 9.70989 6.12765C8.99786 5.78722 9.96889 0 8.28583 0C6.60276 0 7.57379 6.12765 6.86176 6.12765C6.14973 6.12765 5.4377 0.680843 3.65761 1.36169C1.87753 2.04254 5.78165 7.84131 4.72566 8.85105Z" fill="#C1C1C0"/>
</g>
<defs>
<clipPath id="clip0_39_427">
<rect width="16" height="16" fill="white"/>
</clipPath>
</defs>
</svg>
